{"asset": {"version": "2.0", "generator": "prompthon-ipfs-writer"}, "scene": 0, "scenes": [{"nodes": [0]}], "nodes": [{"mesh": 0}], "meshes": [{"primitives": [{"attributes": {"POSITION": 0}, "indices": 1, "mode": 4}]}], "accessors": [{"bufferView": 0, "componentType": 5126, "count": 568, "type": "VEC3", "max": [1213.0, 1036.0, 300], "min": [98.0, 247.0, 0]}, {"bufferView": 1, "componentType": 5123, "count": 2556, "type": "SCALAR"}], "bufferViews": [{"buffer": 0, "byteOffset": 0, "byteLength": 6816, "target": 34962}, {"buffer": 0, "byteOffset": 6816, "byteLength": 5112, "target": 34963}], "buffers": [{"uri": "data:application/octet-stream;base64,", "byteLength": 11928}]}